<?xml version="1.0" standalone="no"?>
<!DOCTYPE svg PUBLIC "-//W3C//DTD SVG 20010904//EN"
 "http://www.w3.org/TR/2001/REC-SVG-20010904/DTD/svg10.dtd">
<svg version="1.0" xmlns="http://www.w3.org/2000/svg"
 width="700.000000pt" height="700.000000pt" viewBox="0 0 700.000000 700.000000"
 preserveAspectRatio="xMidYMid meet">
<metadata>
Created by potrace 1.11, written by Peter Selinger 2001-2013
</metadata>
<g transform="translate(0.000000,700.000000) scale(0.100000,-0.100000)"
fill="#000000" stroke="none">
<path d="M1076 6874 c-136 -33 -279 -140 -345 -256 l-31 -55 -63 -2 c-133 -3
-259 -56 -356 -150 -110 -106 -162 -224 -167 -371 -4 -112 12 -185 62 -281
113 -215 376 -335 603 -274 l55 14 65 -43 c161 -106 360 -124 531 -47 58 26
139 87 180 136 l35 41 80 -4 c160 -8 301 48 415 167 176 181 205 445 75 661
-102 168 -293 268 -492 258 -46 -2 -83 -2 -83 2 0 3 -25 31 -56 62 -128 129
-331 186 -508 142z"/>
<path d="M3365 6876 c-263 -57 -458 -259 -509 -527 -54 -281 95 -573 359 -703
39 -19 81 -37 95 -40 110 -24 145 -28 230 -23 246 15 452 156 554 378 41 91
56 152 60 249 12 299 -183 569 -474 655 -74 22 -239 28 -315 11z"/>
<path d="M5655 6871 c-89 -25 -179 -77 -240 -139 -30 -31 -55 -58 -55 -61 0
-3 -42 -5 -92 -4 -112 2 -158 -7 -256 -52 -57 -27 -92 -52 -146 -107 -106
-108 -154 -219 -160 -366 -3 -57 0 -86 18 -170 3 -12 20 -53 38 -90 46 -95
150 -197 248 -245 95 -47 142 -56 257 -54 51 1 93 -1 93 -4 0 -13 94 -100 144
-133 89 -59 165 -80 291 -80 131 0 203 21 305 89 l65 43 55 -14 c169 -44 376
15 505 143 189 187 217 471 70 693 -101 151 -260 238 -442 241 l-53 1 -31 54
c-60 106 -159 189 -284 239 -90 36 -236 43 -330 16z"/>
<path d="M1947 4485 c-841 -360 -1532 -655 -1536 -655 -4 0 -22 -13 -41 -29
l-35 -29 -3 -262 c-3 -224 -1 -266 13 -286 32 -50 50 -52 349 -52 153 0 281
-3 284 -7 4 -4 7 -446 7 -984 l0 -977 -281 0 c-209 -1 -290 -4 -313 -14 -54
-22 -61 -49 -61 -245 0 -133 -3 -175 -12 -176 -7 0 -40 -2 -74 -3 -69 -4 -106
-23 -123 -65 -8 -19 -11 -106 -9 -279 l3 -252 28 -27 27 -28 3331 0 3331 0 29
33 29 32 0 251 c0 170 -4 257 -12 272 -27 51 -58 64 -145 63 l-63 -1 0 177 c0
106 -4 187 -11 201 -6 13 -25 32 -42 42 -29 17 -57 19 -317 20 l-285 0 0 983
0 982 60 1 c33 0 159 0 280 0 191 -1 225 1 255 16 57 29 60 41 60 322 l0 254
-32 29 c-21 18 -119 66 -258 125 -124 52 -238 100 -255 108 -64 29 -206 90
-640 275 -247 105 -468 200 -490 209 -22 10 -132 58 -245 106 -113 48 -218 93
-235 101 -27 12 -717 307 -911 390 -45 19 -92 34 -105 34 -13 0 -712 -295
-1552 -655z m85 -1315 l46 0 -1 -982 -2 -983 -215 0 -215 0 -3 982 -2 982 47
3 c27 2 104 2 173 1 69 -1 146 -2 172 -3z m2213 0 c21 0 21 -1 19 -977 -1
-538 -2 -981 -3 -984 0 -3 -98 -5 -216 -5 l-215 0 0 982 c0 645 3 983 10 986
8 2 257 1 405 -2z m1088 0 l27 0 0 -983 0 -983 -219 0 -219 0 0 980 c0 540 1
983 3 986 2 4 160 4 408 0z m-2163 -983 l0 -983 -217 0 -218 1 0 983 0 982
217 0 218 0 0 -983z"/>
</g>
</svg>
