<?xml version="1.0" encoding="iso-8859-1"?>
<!-- Generator: Adobe Illustrator 22.1.0, SVG Export Plug-In . SVG Version: 6.00 Build 0)  -->
<svg xmlns="http://www.w3.org/2000/svg" xmlns:xlink="http://www.w3.org/1999/xlink" version="1.1" id="Layer_3" x="0px" y="0px" viewBox="0 0 64 64" style="enable-background:new 0 0 64 64;" xml:space="preserve" width="512" height="512">
<g>
	<g>
		<polyline style="fill:#A4A8A9;" points="4,30 32,18 60,30   "/>
	</g>
	<g>
		<polygon style="fill:#DBE0E1;" points="4,30 55,30 29.5,19.071   "/>
	</g>
	<g>
		<circle style="fill:#F7DA52;" cx="32" cy="24" r="2"/>
	</g>
	<g>
		<rect x="4" y="30" style="fill:#7B7E7F;" width="56" height="4"/>
	</g>
	<g>
		<rect x="4" y="30" style="fill:#A4A8A9;" width="53" height="4"/>
	</g>
	<g>
		<polyline style="fill:#A4A8A9;" points="50,54 50,34 54,34 54,54   "/>
	</g>
	<g>
		<rect x="50" y="34" style="fill:#DBE0E1;" width="2" height="20"/>
	</g>
	<g>
		<polyline style="fill:#A4A8A9;" points="40,54 40,34 44,34 44,54   "/>
	</g>
	<g>
		<rect x="40" y="34" style="fill:#DBE0E1;" width="2" height="20"/>
	</g>
	<g>
		<polyline style="fill:#A4A8A9;" points="30,54 30,34 34,34 34,54   "/>
	</g>
	<g>
		<rect x="30" y="34" style="fill:#DBE0E1;" width="2" height="20"/>
	</g>
	<g>
		<polyline style="fill:#A4A8A9;" points="20,54 20,34 24,34 24,54   "/>
	</g>
	<g>
		<rect x="20" y="34" style="fill:#DBE0E1;" width="2" height="20"/>
	</g>
	<g>
		<polyline style="fill:#A4A8A9;" points="10,54 10,34 14,34 14,54   "/>
	</g>
	<g>
		<rect x="10" y="34" style="fill:#DBE0E1;" width="2" height="20"/>
	</g>
	<g>
		<rect x="4" y="54" style="fill:#7B7E7F;" width="56" height="4"/>
	</g>
	<g>
		<rect x="4" y="54" style="fill:#A4A8A9;" width="53" height="4"/>
	</g>
	<g>
		<rect x="2" y="58" style="fill:#A4A8A9;" width="60" height="4"/>
	</g>
	<g>
		<rect x="2" y="58" style="fill:#DBE0E1;" width="57" height="4"/>
	</g>
	<g>
		<circle style="fill:#BC842C;" cx="32" cy="7" r="5"/>
	</g>
	<g>
		<ellipse style="fill:#FBB03B;" cx="30.5" cy="7" rx="3.5" ry="4.746"/>
	</g>
	<g>
		<path style="fill:#54BCE8;" d="M48,4c0.498,0,0.969,0.102,1.409,0.268C50.056,2.93,51.414,2,53,2c1.924,0,3.528,1.359,3.911,3.169    C57.259,5.07,57.62,5,58,5c2.209,0,4,1.791,4,4c0,2.209-1.791,4-4,4c-0.692,0-1.333-0.192-1.9-0.501    C55.367,13.408,54.258,14,53,14c-1.586,0-2.944-0.93-3.591-2.268C48.969,11.898,48.498,12,48,12c-2.209,0-4-1.791-4-4    C44,5.791,45.791,4,48,4z"/>
	</g>
	<g>
		<path style="fill:#54D8FD;" d="M58,8c-0.38,0-0.741,0.07-1.089,0.169C56.528,6.359,54.924,5,53,5c-1.586,0-2.944,0.93-3.591,2.268    C48.969,7.102,48.498,7,48,7c-1.678,0-3.109,1.035-3.703,2.5C44.891,10.965,46.322,12,48,12c0.498,0,0.969-0.102,1.409-0.268    C50.056,13.07,51.414,14,53,14c1.258,0,2.367-0.592,3.1-1.501C56.667,12.808,57.308,13,58,13c1.678,0,3.109-1.035,3.703-2.5    C61.109,9.035,59.678,8,58,8z"/>
	</g>
	<g>
		<path style="fill:#54BCE8;" d="M16,4c-0.498,0-0.969,0.102-1.409,0.268C13.944,2.93,12.586,2,11,2    C9.076,2,7.472,3.359,7.089,5.169C6.741,5.07,6.38,5,6,5C3.791,5,2,6.791,2,9c0,2.209,1.791,4,4,4c0.692,0,1.333-0.192,1.9-0.501    C8.633,13.408,9.742,14,11,14c1.586,0,2.944-0.93,3.591-2.268C15.031,11.898,15.502,12,16,12c2.209,0,4-1.791,4-4    C20,5.791,18.209,4,16,4z"/>
	</g>
	<g>
		<path style="fill:#54D8FD;" d="M6,8c0.38,0,0.741,0.07,1.089,0.169C7.472,6.359,9.076,5,11,5c1.586,0,2.944,0.93,3.591,2.268    C15.031,7.102,15.502,7,16,7c1.678,0,3.109,1.035,3.703,2.5C19.109,10.965,17.678,12,16,12c-0.498,0-0.969-0.102-1.409-0.268    C13.944,13.07,12.586,14,11,14c-1.258,0-2.367-0.592-3.1-1.501C7.333,12.808,6.692,13,6,13c-1.678,0-3.109-1.035-3.703-2.5    C2.891,9.035,4.322,8,6,8z"/>
	</g>
	<g>
		<path d="M62,63H2c-0.552,0-1-0.447-1-1v-4c0-0.553,0.448-1,1-1h60c0.552,0,1,0.447,1,1v4C63,62.553,62.552,63,62,63z M3,61h58v-2    H3V61z"/>
	</g>
	<g>
		<path d="M61,58h-2v-3H5v3H3v-4c0-0.553,0.448-1,1-1h56c0.552,0,1,0.447,1,1V58z"/>
	</g>
	<g>
		<path d="M15,54h-2V35h-2v19H9V34c0-0.553,0.448-1,1-1h4c0.552,0,1,0.447,1,1V54z"/>
	</g>
	<g>
		<path d="M25,54h-2V35h-2v19h-2V34c0-0.553,0.448-1,1-1h4c0.552,0,1,0.447,1,1V54z"/>
	</g>
	<g>
		<path d="M35,54h-2V35h-2v19h-2V34c0-0.553,0.448-1,1-1h4c0.552,0,1,0.447,1,1V54z"/>
	</g>
	<g>
		<path d="M45,54h-2V35h-2v19h-2V34c0-0.553,0.448-1,1-1h4c0.552,0,1,0.447,1,1V54z"/>
	</g>
	<g>
		<path d="M55,54h-2V35h-2v19h-2V34c0-0.553,0.448-1,1-1h4c0.552,0,1,0.447,1,1V54z"/>
	</g>
	<g>
		<path d="M60,35H4c-0.552,0-1-0.447-1-1v-4c0-0.553,0.448-1,1-1h56c0.552,0,1,0.447,1,1v4C61,34.553,60.552,35,60,35z M5,33h54v-2    H5V33z"/>
	</g>
	<g>
		<path d="M59.606,30.919L32,19.088L4.394,30.919l-0.788-1.838l28-12c0.252-0.107,0.536-0.107,0.788,0l28,12L59.606,30.919z"/>
	</g>
	<g>
		<path d="M11,15c-1.242,0-2.422-0.466-3.336-1.298C7.124,13.9,6.566,14,6,14c-2.757,0-5-2.243-5-5c0-2.894,2.464-5.256,5.411-4.98    C7.189,2.225,8.988,1,11,1c1.638,0,3.127,0.786,4.056,2.096C15.372,3.032,15.687,3,16,3c2.757,0,5,2.243,5,5s-2.243,5-5,5    c-0.313,0-0.628-0.032-0.944-0.096C14.127,14.214,12.638,15,11,15z M7.899,11.499c0.294,0,0.583,0.13,0.778,0.372    C9.257,12.589,10.104,13,11,13c1.151,0,2.182-0.653,2.69-1.704c0.225-0.466,0.769-0.683,1.253-0.5C17.048,11.592,19,10.001,19,8    c0-2.001-1.952-3.588-4.056-2.796c-0.484,0.186-1.028-0.034-1.253-0.5C13.182,3.653,12.151,3,11,3    C9.592,3,8.358,3.999,8.067,5.376C8.01,5.646,7.843,5.882,7.605,6.025c-0.237,0.143-0.524,0.18-0.789,0.105C6.5,6.042,6.241,6,6,6    C4.346,6,3,7.346,3,9s1.346,3,3,3c0.482,0,0.96-0.128,1.421-0.379C7.572,11.539,7.737,11.499,7.899,11.499z"/>
	</g>
	<g>
		<path d="M53,15c-1.638,0-3.127-0.786-4.056-2.096C48.628,12.968,48.313,13,48,13c-2.757,0-5-2.243-5-5s2.243-5,5-5    c0.313,0,0.628,0.032,0.944,0.096C49.873,1.786,51.362,1,53,1c2.012,0,3.811,1.225,4.589,3.02C60.533,3.751,63,6.107,63,9    c0,2.757-2.243,5-5,5c-0.566,0-1.124-0.1-1.664-0.298C55.422,14.534,54.242,15,53,15z M49.409,10.731    c0.374,0,0.729,0.21,0.901,0.564C50.818,12.347,51.849,13,53,13c0.896,0,1.743-0.411,2.322-1.129    c0.303-0.377,0.832-0.481,1.257-0.25C57.04,11.872,57.518,12,58,12c1.654,0,3-1.346,3-3s-1.346-3-3-3    c-0.241,0-0.5,0.042-0.816,0.131c-0.267,0.075-0.553,0.037-0.789-0.105c-0.237-0.144-0.404-0.379-0.462-0.649    C55.642,3.999,54.408,3,53,3c-1.151,0-2.182,0.653-2.69,1.704c-0.225,0.466-0.767,0.686-1.253,0.5C46.955,4.411,45,5.999,45,8    c0,2.001,1.956,3.593,4.056,2.796C49.172,10.752,49.292,10.731,49.409,10.731z"/>
	</g>
	<g>
		<path d="M32,27c-1.654,0-3-1.346-3-3s1.346-3,3-3s3,1.346,3,3S33.654,27,32,27z M32,23c-0.551,0-1,0.448-1,1s0.449,1,1,1    s1-0.448,1-1S32.551,23,32,23z"/>
	</g>
	<g>
		<path d="M32,13c-3.309,0-6-2.691-6-6s2.691-6,6-6s6,2.691,6,6S35.309,13,32,13z M32,3c-2.206,0-4,1.794-4,4s1.794,4,4,4    s4-1.794,4-4S34.206,3,32,3z"/>
	</g>
</g>
</svg>
